<svg width="230" height="190" viewBox="0 0 230 190" fill="none" xmlns="http://www.w3.org/2000/svg">
<path d="M57.8711 24.5706C27.2852 37.9886 1.85547 49.2386 1.50391 49.473C1.09375 49.7659 0.742188 50.5862 0.742188 51.2894C0.742188 52.0511 1.09375 52.93 1.50391 53.223C1.85547 53.5745 9.53125 57.0901 18.4375 61.0159L34.7266 68.223V94.1214C34.7266 114.16 34.9023 120.196 35.4883 120.606C37.0117 121.895 114.473 155.938 115.762 155.938C116.465 155.938 128.77 150.782 143.066 144.512C157.363 138.243 169.199 133.086 169.316 133.086C169.375 133.086 169.492 140.41 169.492 149.434V165.723L166.738 167.188C159.648 170.821 158.008 179.668 163.223 185.645C167.031 189.981 172.363 190.977 177.637 188.399C186.66 183.887 186.25 170.703 176.934 166.778L174.766 165.899L174.883 148.203L175.059 130.508L184.434 126.407C189.59 124.121 194.16 122.012 194.57 121.778C195.098 121.426 195.273 115.45 195.273 95.3519V69.3948L211.68 62.1878C220.703 58.2034 228.379 54.6292 228.73 54.2191C229.082 53.7503 229.258 52.7542 229.023 51.9925C228.73 50.762 221.348 47.3636 171.836 25.3323C140.605 11.4456 114.648 0.0784302 114.238 0.0784302C113.887 0.137024 88.5156 11.1526 57.8711 24.5706ZM167.617 29.3753C196.094 42.0316 219.18 52.5784 218.887 52.8714C218.418 53.3401 174.707 72.6175 172.949 73.1448C172.48 73.262 157.773 67.0511 140.254 59.3167C122.793 51.5237 108.027 45.1956 107.441 45.1956C105.332 45.1956 104.102 48.4183 105.801 49.7073C106.152 50.0589 119.805 56.2112 136.035 63.4183C164.219 75.8988 165.449 76.5433 163.867 77.1878C162.93 77.598 151.914 82.4027 139.375 87.9105C126.777 93.4183 116.172 97.93 115.703 97.93C114.766 97.93 11.9336 52.4026 11.0547 51.5823C10.7617 51.348 11.5234 50.7034 12.8125 50.1761C14.043 49.6487 37.2461 39.512 64.3164 27.6175C91.3867 15.723 114.062 6.05499 114.707 6.17218C115.352 6.28937 139.141 16.7191 167.617 29.3753ZM77.793 87.3831C98.0664 96.4066 115.117 103.789 115.645 103.789C116.23 103.789 128.418 98.6331 142.773 92.3636C157.129 86.0941 169.023 80.9378 169.199 80.9378C169.375 80.9378 169.492 91.3089 169.492 103.965V127.051L142.598 138.828L115.703 150.606L77.8516 133.789L40 116.973V93.9456C40 81.348 40.1758 70.9769 40.4687 70.9769C40.7031 70.9769 57.5195 78.3597 77.793 87.3831ZM189.883 95.1175L189.707 118.086L182.969 121.133C179.277 122.832 175.879 124.239 175.527 124.239C174.941 124.297 174.766 119.317 174.766 101.27V78.3011L181.68 75.2542C185.43 73.6136 188.887 72.2073 189.297 72.2073C189.883 72.1488 190 76.8948 189.883 95.1175ZM175.352 172.051C180.098 174.512 179.863 181.485 174.883 183.828C172.305 185.059 169.551 184.532 167.559 182.422C162.285 176.856 168.496 168.535 175.352 172.051Z" fill="#5C94BD"/>
</svg>
