<svg width="30" height="30" viewBox="0 0 30 30" fill="none" xmlns="http://www.w3.org/2000/svg">
<path d="M14.4 4.79922C14.4 6.11922 14.7 7.19922 15 7.19922C15.36 7.19922 15.6 6.11922 15.6 4.79922C15.6 3.47922 15.36 2.39922 15 2.39922C14.7 2.39922 14.4 3.47922 14.4 4.79922Z" fill="#FAD06F" fill-opacity="0.96"/>
<path d="M6 6.47995C6 7.31995 8.94 9.83995 9.42 9.41995C9.6 9.17995 9.18 8.33995 8.4 7.49995C6.96 5.99995 6 5.57995 6 6.47995Z" fill="#FAD06F" fill-opacity="0.96"/>
<path d="M21.6 7.49995C20.82 8.33995 20.4 9.17995 20.58 9.41995C21.06 9.83995 24 7.31995 24 6.47995C24 5.57995 23.04 5.99995 21.6 7.49995Z" fill="#FAD06F" fill-opacity="0.96"/>
<path d="M12.06 9.84C6.84 12.72 9.06 21 15 21C18.06 21 21 18.06 21 15.06C21 10.56 16.02 7.62 12.06 9.84Z" fill="#FAD06F" fill-opacity="0.96"/>
<path d="M2.40002 14.9996C2.40002 15.2996 3.48002 15.5996 4.80002 15.5996C6.12002 15.5996 7.20002 15.2996 7.20002 14.9996C7.20002 14.6396 6.12002 14.3996 4.80002 14.3996C3.48002 14.3996 2.40002 14.6396 2.40002 14.9996Z" fill="#FAD06F" fill-opacity="0.96"/>
<path d="M22.8 14.9996C22.8 15.2996 23.88 15.5996 25.2 15.5996C26.52 15.5996 27.6 15.2996 27.6 14.9996C27.6 14.6396 26.52 14.3996 25.2 14.3996C23.88 14.3996 22.8 14.6396 22.8 14.9996Z" fill="#FAD06F" fill-opacity="0.96"/>
<path d="M7.20002 21.8994C6.42002 22.7394 6.00002 23.5794 6.18002 23.8194C6.66002 24.2394 9.60002 21.7194 9.60002 20.8794C9.60002 19.9794 8.64002 20.3994 7.20002 21.8994Z" fill="#FAD06F" fill-opacity="0.96"/>
<path d="M20.4 20.8794C20.4 21.7194 23.34 24.2394 23.82 23.8194C24 23.5794 23.58 22.7394 22.8 21.8994C21.36 20.3994 20.4 19.9794 20.4 20.8794Z" fill="#FAD06F" fill-opacity="0.96"/>
<path d="M14.4 25.1996C14.4 26.5196 14.7 27.5996 15 27.5996C15.36 27.5996 15.6 26.5196 15.6 25.1996C15.6 23.8796 15.36 22.7996 15 22.7996C14.7 22.7996 14.4 23.8796 14.4 25.1996Z" fill="#FAD06F" fill-opacity="0.96"/>
</svg>
