<svg width="150" height="150" viewBox="0 0 150 150" fill="none" xmlns="http://www.w3.org/2000/svg">
<path d="M11.9824 16.6113C11.543 16.6699 10.4883 17.1387 9.63868 17.666C7.6465 18.8672 6.53321 20.625 6.12306 23.1738C5.94728 24.375 5.85939 43.5644 5.91798 76.3184C6.00587 124.746 6.03517 127.646 6.53321 128.73C7.35353 130.605 8.32032 131.631 9.99025 132.568L11.5723 133.447H60.4981H109.424L112.412 132.773C120.908 130.898 127.207 127.441 132.979 121.406C138.574 115.605 142.09 108.779 143.408 101.133C143.994 97.6172 143.994 91.3477 143.408 87.832C141.357 75.9668 133.594 65.3906 122.813 59.8535L120.264 58.5352L120.117 40.3125L119.971 22.1191L119.18 20.6543C118.271 18.9258 117.51 18.1934 115.723 17.2559L114.404 16.5527L63.5742 16.5234C35.625 16.4941 12.3926 16.5527 11.9824 16.6113ZM115.283 20.5078C116.836 21.9726 116.895 22.2656 116.895 30.1758V37.5H62.9883H9.08204V30.0879C9.08204 23.2324 9.14064 22.6465 9.66798 21.7383C9.99025 21.2109 10.6641 20.5371 11.1914 20.2148C12.1582 19.6289 12.6856 19.6289 63.3399 19.6875L114.492 19.7754L115.283 20.5078ZM33.0469 50.3027L33.1055 60.0586H21.0938H9.08204V50.2441V40.4297L21.0352 40.4883L32.959 40.5762L33.0469 50.3027ZM61.5234 50.2441V60.0586H48.7793H36.0352V50.2441V40.4297H48.7793H61.5234V50.2441ZM89.9414 49.4531V58.4766L88.3301 59.2676L86.7188 60.0586H75.5859H64.4531V50.2441V40.4297H77.1973H89.9414V49.4531ZM116.895 48.8672V57.3047L114.199 56.6309C108.809 55.2539 101.748 55.2246 96.3574 56.5137C95.0098 56.8359 93.6621 57.1875 93.3984 57.2754C92.9004 57.4805 92.8711 56.9824 92.8711 49.1602C92.8711 44.5605 92.959 40.7227 93.0762 40.6348C93.1641 40.5176 98.584 40.4297 105.088 40.4297H116.895V48.8672ZM110.918 59.0332C119.766 60.5566 127.793 65.3027 133.154 72.2168C138.428 79.043 140.918 86.1621 140.918 94.4824C140.918 108.164 133.154 120.645 120.762 126.826C112.793 130.811 102.334 131.514 93.6914 128.613C84.7559 125.625 77.0801 118.975 72.8906 110.596C68.5547 102.012 67.8809 91.4648 71.0742 82.5586C75.4102 70.4297 86.0742 61.3769 98.7305 59.0625C101.748 58.5059 107.754 58.5059 110.918 59.0332ZM33.0469 73.4473L32.959 83.9355L21.0352 84.0234L9.08204 84.082V73.5352V62.9883H21.0938H33.1055L33.0469 73.4473ZM61.5234 73.5352V84.082H48.7793H36.0352V73.5352V62.9883H48.7793H61.5234V73.5352ZM80.4199 64.2187C74.8828 68.7891 70.3711 75.3516 68.1152 82.0312L67.4707 83.9355L65.9766 84.0234L64.4531 84.1113V73.5644V62.9883H73.1836H81.8848L80.4199 64.2187ZM33.0469 97.4707L32.959 107.959L21.0352 108.047L9.08204 108.105V97.5586V87.0117H21.0938H33.1055L33.0469 97.4707ZM61.5234 97.5586V108.105H48.7793H36.0352V97.5586V87.0117H48.7793H61.5234V97.5586ZM66.6797 87.4512C66.5918 87.6855 66.3574 89.3555 66.1816 91.1426C65.6836 96.0059 66.2402 100.781 68.1445 107.432C68.3203 108.076 68.2617 108.105 66.3867 108.105H64.4531V97.5586V87.0117H65.6543C66.5918 87.0117 66.8262 87.0996 66.6797 87.4512ZM33.1055 120.703V130.371H22.6465C12.6856 130.371 12.0996 130.342 11.1914 129.785C10.6641 129.463 9.99025 128.789 9.66798 128.262C9.11134 127.354 9.08204 126.768 9.08204 119.15V111.035H21.0938H33.1055V120.703ZM61.5234 120.703V130.371H48.7793H36.0352V120.703V111.035H48.7793H61.5234V120.703ZM70.752 113.145C74.4434 119.766 80.1563 125.391 86.7188 128.877L89.502 130.371H76.9922H64.4531V120.703V111.035H67.0313H69.5801L70.752 113.145Z" fill="#5C94BD"/>
<path d="M21.5039 23.1153C19.1016 24.1993 17.5782 27.1876 18.1641 29.6778C19.3067 34.8048 25.9571 36.1231 28.9161 31.8458C30 30.2638 30.2051 27.5685 29.3555 25.8985C27.8321 22.9395 24.4922 21.7677 21.5039 23.1153ZM25.4883 25.9864C28.0664 27.5099 27.0118 31.3477 24.0235 31.3477C20.918 31.3477 19.9512 27.3341 22.7051 25.8399C23.5547 25.3712 24.5508 25.4298 25.4883 25.9864Z" fill="#5C94BD"/>
<path d="M40.7227 23.2034C38.3203 24.5218 36.9434 27.803 37.793 30.3226C38.7305 33.1937 42.0117 35.0394 44.7656 34.307C47.4316 33.6038 49.5117 31.0843 49.5117 28.5648C49.5117 26.8655 48.2813 24.5511 46.8457 23.555C45.1172 22.3831 42.5684 22.2366 40.7227 23.2034ZM45.4102 26.221C46.3477 27.0706 46.6699 28.2718 46.2891 29.4144C45.8789 30.6741 44.8828 31.348 43.4473 31.348C42.0117 31.348 41.1621 30.7327 40.7227 29.4437C40.2246 27.9202 40.8984 26.3675 42.334 25.7523C43.1543 25.4007 44.7949 25.6644 45.4102 26.221Z" fill="#5C94BD"/>
<path d="M60.6446 23.0275C56.2793 24.9318 55.8399 31.0255 59.9121 33.5451C63.8379 35.9767 68.877 33.1935 68.877 28.5939C68.877 24.2287 64.5703 21.3283 60.6446 23.0275ZM64.2481 25.8107C67.0606 27.2462 66.1231 31.3478 62.9883 31.3478C62.0215 31.3478 61.5821 31.172 60.9082 30.4982C58.6231 28.213 61.377 24.3458 64.2481 25.8107Z" fill="#5C94BD"/>
<path d="M80.127 22.9689C78.1934 23.8185 76.4941 26.3087 76.4648 28.2716C76.4648 31.0841 78.4863 33.6622 81.1816 34.2775C86.4551 35.4493 90.498 29.4728 87.3926 25.0782C85.8398 22.881 82.5 21.9142 80.127 22.9689ZM84.5508 26.3966C85.4883 27.2755 85.7227 28.6818 85.1367 29.8243C84.5508 30.9669 83.8477 31.3478 82.3828 31.3478C81.0937 31.3478 79.8926 30.381 79.5703 29.1212C79.3066 28.1544 80.1855 26.338 81.1523 25.84C82.1191 25.3419 83.7012 25.6056 84.5508 26.3966Z" fill="#5C94BD"/>
<path d="M99.4629 23.1156C97.1484 24.141 95.918 26.3969 96.1523 29.1508C96.2988 31.0258 97.1777 32.432 98.8184 33.4867C103.271 36.3871 109.043 32.3441 107.783 27.1879C106.934 23.5258 102.861 21.5629 99.4629 23.1156ZM103.418 25.9281C105.088 26.7777 105.41 28.9164 104.121 30.4398C102.48 32.4027 99.0234 31.143 99.0234 28.5648C99.0234 27.7152 99.2578 27.2465 100.02 26.4848C101.133 25.3715 102.07 25.225 103.418 25.9281Z" fill="#5C94BD"/>
<path d="M102.246 64.5994C102.012 64.658 100.811 64.863 99.6094 65.0388C97.1191 65.449 94.1309 66.4451 91.5527 67.7634C79.8926 73.6228 73.2129 86.7185 75.4395 99.4627C78.2813 115.693 93.6035 126.709 109.717 124.072C121.553 122.138 130.986 113.525 134.092 101.719C134.736 99.2576 134.854 98.2615 134.854 94.4822C134.854 90.6736 134.736 89.7068 134.063 87.1873C130.635 74.1794 119.385 65.0974 106.055 64.5994C104.209 64.5408 102.48 64.5408 102.246 64.5994ZM103.418 69.2869C103.418 71.572 104.561 72.656 105.908 71.6599C106.318 71.3669 106.494 70.781 106.582 69.4333L106.729 67.6169L108.34 67.822C118.652 69.1111 127.354 76.3767 130.605 86.4255C131.133 88.0662 131.836 91.4353 131.836 92.4607C131.836 92.6658 131.104 92.8416 130.049 92.9294C128.73 93.0173 128.145 93.2224 127.852 93.6033C126.855 94.9509 127.939 96.0935 130.225 96.0935C132.1 96.0935 132.07 96.0056 131.426 99.3748C129.346 110.097 120.996 118.652 110.391 120.82C106.699 121.582 106.729 121.582 106.582 119.502C106.406 117.041 105.293 116.191 104.004 117.48C103.564 117.92 103.418 118.447 103.418 119.707V121.377L101.689 121.172C92.2266 120.088 83.4668 113.261 79.9805 104.238C79.1309 102.07 78.2227 98.2029 78.2227 96.8259C78.2227 96.1228 78.3106 96.0935 79.834 96.0935C81.7383 96.0935 82.793 95.3611 82.4414 94.2478C82.1484 93.2224 81.8555 93.0759 79.9512 92.9294L78.1641 92.783L78.3399 91.113C79.5996 80.156 88.3594 70.6052 99.3164 68.2615C100.693 67.9685 102.158 67.7048 102.627 67.7048C103.389 67.6755 103.418 67.7048 103.418 69.2869Z" fill="#5C94BD"/>
<path d="M104.004 78.5158C103.477 79.0432 103.418 79.4826 103.418 83.8479V88.6232L101.982 89.4143C100.869 90.0295 100.4 90.5275 99.7852 91.7287C98.7891 93.7795 98.7891 95.3029 99.8438 97.2951C101.221 99.9611 104.443 101.162 107.168 100.02C108.486 99.4924 110.01 98.0568 110.479 96.9436L110.801 96.0939H117.744C125.273 96.0939 125.977 95.9475 125.977 94.4826C125.977 93.0178 125.273 92.8713 117.744 92.8713H110.801L110.449 91.9924C110.039 91.0256 108.193 89.2092 107.285 88.9455C106.699 88.7404 106.67 88.4768 106.582 83.76C106.494 79.2189 106.436 78.7209 105.938 78.34C105.147 77.7834 104.707 77.8127 104.004 78.5158ZM106.846 92.1389C108.545 93.2521 108.193 96.2404 106.26 97.1486C103.711 98.3791 101.104 95.6838 102.393 93.1643C103.242 91.5529 105.205 91.0842 106.846 92.1389Z" fill="#5C94BD"/>
<path d="M50.8301 71.4841L45.2637 77.0506L43.6816 74.3259C41.7774 71.074 41.3965 70.6052 40.5762 70.6052C39.7266 70.6052 38.8477 71.6013 39.082 72.2752C39.1992 72.5681 40.3711 74.6189 41.6895 76.8455C43.4473 79.8045 44.2676 80.9177 44.7949 81.0642C45.3809 81.2107 46.3477 80.3611 52.0313 74.6482C55.6348 71.0447 58.5938 67.8513 58.5938 67.5877C58.5938 66.9431 57.5684 65.9177 56.9238 65.9177C56.6602 65.9177 53.9063 68.408 50.8301 71.4841Z" fill="#5C94BD"/>
</svg>
